# xmcd
#
# Track frame offsets:
#	150
#	31227
#	54937
#	92194
#
# Disc length: 1468 seconds
#
# Revision: 1
# Processed by: cddbd v1.5.2PL0 Copyright (c) Steve Scherf et al.
# Submitted via: audiograbber 1.83.01
#
DISCID=2705ba04
DTITLE=Kylian - Lappi Inzoo [CDM)
DYEAR=2004
DGENRE=Electronic
TTITLE0=Lappi Inzoo
TTITLE1=Tak-ap
TTITLE2=Lappi Inzoo (Remix By Roger That Jr.)
TTITLE3=Eerikson
EXTD=TR.
EXTT0=
EXTT1=
EXTT2=
EXTT3=
PLAYORDER=
